# xmcd CD database file generated by OrangeCD 6.3
#
# Track frame offsets:
#	150
#	18442
#	35860
#	67462
#	89836
#	122122
#	143203
#	159490
#	178440
#	211071
#	230713
#	252895
#	269011
#	289402
#	315856
#
# Disc length: 4595 seconds
#
# Revision: 3
# Processed by: cddbd v1.5.2PL0 Copyright (c) Steve Scherf et al.
# Submitted via: OrangeCD 6.3
#
DISCID=f311f10f
DTITLE=Various Artist - Highway 60's-70's, Vol:2 - Blues Revisited
DYEAR=2003
DGENRE=Blues
TTITLE0=Joe Louis Walker - Roll It Over
TTITLE1=Bo Diddley - Before You Accuse Me
TTITLE2=Jimmy Thackery - Red House
TTITLE3=Otis Rush - Can't Quit You Baby
TTITLE4=David Coco - This Is A Man's World
TTITLE5=Taj Mahal - Honky Tonk Woman
TTITLE6=Leon Russell - Watching The River Flow
TTITLE7=Phil Brown - 6 Was 9
TTITLE8=Tommy Castro - Sex Machine
TTITLE9=Lucky Peterson - Under My Thumb
TTITLE10=Ras Smaila - Stone Free
TTITLE11=John Hammond - I'll Be Your Baby Tonight
TTITLE12=Popa Chubby - I've Been Loving You Too Long
TTITLE13=Bill Perry - No Expectations
TTITLE14=Ois Clay - Since I've Been Loving You
EXTD=
EXTT0=
EXTT1=
EXTT2=
EXTT3=
EXTT4=
EXTT5=
EXTT6=
EXTT7=
EXTT8=
EXTT9=
EXTT10=
EXTT11=
EXTT12=
EXTT13=
EXTT14=
PLAYORDER=
